<svg xmlns="http://www.w3.org/2000/svg" viewBox="-15 -25 45 45" width="500" height="500">
  <defs>
    <linearGradient id="hair-grad" x1="0" y1="0" x2="0" y2="1">
      <stop offset="0%" stop-color="#5A3131"/>
      <stop offset="100%" stop-color="#2B1818"/>
    </linearGradient>
    <linearGradient id="blazer-grad" x1="0" y1="0" x2="0" y2="1">
      <stop offset="0%" stop-color="#373746"/>
      <stop offset="100%" stop-color="#1D1D24"/>
    </linearGradient>
    <style>
      .body-float { transform-origin: 7.5px 10px; animation: bodyFloat 3.8s infinite ease-in-out; }
      .hair-sway { transform-origin: 7.5px 4.5px; animation: hairSway 4.8s infinite ease-in-out; }
      .sparkle-pulse { animation: sparklePulse 1.8s infinite ease-in-out; }
      .alert-pop { animation: alertPop 0.9s infinite ease-in-out; }
      .sleep-breathe { transform-origin: 7.5px 10px; animation: sleepBreathe 4.6s infinite ease-in-out; }
      .mini-hover { animation: miniHover 2.6s infinite ease-in-out; }
      @keyframes bodyFloat {
        0%,100% { transform: translate(0,0); }
        50% { transform: translate(0,0.65px); }
      }
      @keyframes hairSway {
        0%,100% { transform: rotate(0deg); }
        50% { transform: rotate(-1.6deg); }
      }
      @keyframes sparklePulse {
        0%,100% { opacity: 0.65; transform: scale(1); }
        50% { opacity: 1; transform: scale(1.08); }
      }
      @keyframes alertPop {
        0%,100% { transform: translateY(0); }
        50% { transform: translateY(-0.7px); }
      }
      @keyframes sleepBreathe {
        0%,100% { transform: translate(0,0) scale(1,1); }
        50% { transform: translate(0,0.8px) scale(1.02,0.98); }
      }
      @keyframes miniHover {
        0%,100% { transform: translateY(0); }
        50% { transform: translateY(-0.8px); }
      }
    </style>
  </defs>
  
  <g transform="translate(0 0) scale(1 1)">
    <ellipse cx="7.6" cy="15.1" rx="4.5" ry="1.05" fill="#24171F" opacity="0.28"/>
  </g>
  <g >
    <g transform="translate(0 0) rotate(7 7.5 9.5)" class="body-float">
      <g class="hair-sway">
        <path d="M2.2 1.9 Q3.8 -2.4 7.5 -2.4 Q11.7 -2.4 13 2.1 L13 7.8 Q12.3 10.8 10.6 12.2 L9.6 12.2 L10 5.5 Q7.8 7.2 5.1 7.4 L4.7 12.2 L3.5 12.2 Q1.7 10.7 2.2 7.1 Z" fill="url(#hair-grad)"/>
        <path d="M2.9 0.3 Q7.2 -4.1 12.4 1.3 Q11.4 0.8 10.5 1.2 Q7.6 -1.6 4.4 1.7 Q3.4 1.2 2.9 0.3 Z" fill="#5A3131" opacity="0.88"/>
      </g>
      <ellipse cx="7.6" cy="2.6" rx="3.9" ry="4.45" fill="#F2C7B5"/>
      <ellipse cx="5.1" cy="3.2" rx="1.05" ry="0.55" fill="#E8A59B" opacity="0.45"/>
      <ellipse cx="10.1" cy="3.2" rx="1.05" ry="0.55" fill="#E8A59B" opacity="0.45"/>
      
      <g fill="#1C1115">
        <ellipse cx="5.6" cy="1.4" rx="0.42" ry="0.6"/>
        <ellipse cx="10.6" cy="1.4" rx="0.42" ry="0.6"/>
      </g>
      <ellipse cx="7.5" cy="4.8" rx="0.8" ry="0.95" fill="#B84C67" opacity="0.9"/>
      <path d="M4.35 -0.5 Q7.5 1.2 10.65 -0.5" stroke="#5A3131" stroke-width="0.42" fill="none" stroke-linecap="round"/>
      <path d="M3.3 6.1 L11.8 6.1 L12.7 11.1 L2.4 11.1 Z" fill="url(#blazer-grad)"/>
      <path d="M5.55 4 L7.45 7.2 L9.4 4" fill="#F7E7E2"/>
      <path d="M5.55 4 L7.45 7.2 L9.4 4" stroke="#C9A45C" stroke-width="0.22" fill="#F7E7E2"/>
      <path d="M6.65 4.7 H8.3" stroke="#D9778B" stroke-width="0.35" stroke-linecap="round"/>
      <rect x="5.15" y="5.2" width="4.8" height="5.7" rx="0.6" fill="#2A2A33"/>
      <path d="M5.15 5.5 Q7.55 6.5 9.95 5.5" stroke="#C9A45C" stroke-width="0.24" fill="none"/>
      
        <path d="M1.8 7.8 L4.2 6.1 L5.1 7.1 L2.6 8.8 Z" fill="#F2C7B5"/>
        <path d="M11.9 7.2 L14.8 5.2 L15.4 6.4 L12.7 8.2 Z" fill="#F2C7B5"/>
      <path d="M5.8 10.7 L5.15 14.8" stroke="#F2C7B5" stroke-width="1.05" stroke-linecap="round"/>
      <path d="M9.25 10.7 L10 15" stroke="#F2C7B5" stroke-width="1.05" stroke-linecap="round"/>
      <path d="M4.85 14.8 Q5.8 15.35 6.6 14.95" stroke="#8A2D47" stroke-width="0.82" stroke-linecap="round"/>
      <path d="M9.55 15 Q10.65 15.55 11.55 15.1" stroke="#8A2D47" stroke-width="0.82" stroke-linecap="round"/>
      
          <g transform="translate(10 5.7) rotate(9 2 3)">
            <rect x="0" y="0" width="3.9" height="6.8" rx="0.85" fill="#2B2430"/>
            <rect x="0.45" y="0.55" width="3" height="5.2" rx="0.55" fill="#FFD7E0"/>
            <circle cx="1.95" cy="6.15" r="0.3" fill="#C9A45C"/>
          </g>
      <path d="M14.4 4.1 L16.8 2.4" stroke="#C9A45C" stroke-width="0.55" stroke-linecap="round"/>
    </g>
  </g>
  
  
  <g fill="#FFE8B0" opacity="0.95">
    <rect x="-1" y="2" width="1.2" height="3"/>
    <rect x="-1.9" y="2.9" width="3" height="1.2"/>
    <rect x="16.8" y="3.3" width="1" height="2.6"/>
    <rect x="16" y="4.1" width="2.6" height="1"/>
  </g>
</svg>
